<?xml version="1.0" encoding="utf-8"?>
<!-- Generator: Adobe Illustrator 21.1.0, SVG Export Plug-In . SVG Version: 6.00 Build 0)  -->
<svg version="1.1" id="Layer_1" xmlns="http://www.w3.org/2000/svg" xmlns:xlink="http://www.w3.org/1999/xlink" x="0px" y="0px"
	 width="508px" height="508px" viewBox="0 0 508 508" style="enable-background:new 0 0 508 508;" xml:space="preserve">
<style type="text/css">
	.st0{fill:#42A5F5;}
	.st1{fill:#FFFFFF;}
	.st2{fill:#158543;}
</style>
<circle class="st0" cx="254" cy="254" r="254"/>
<path class="st1" d="M403.6,193.2c0.8-4.8,1.2-9.6,1.2-14.8c0-46.4-37.6-83.6-83.6-83.6c-35.2,0-65.6,22-78,52.8
	c-13.2-12.4-30.8-20-50.4-20c-40.8,0-73.6,32.8-73.6,73.6c0,3.6,0.4,6.8,0.8,10.4c-3.6-0.8-7.2-0.8-10.8-0.8
	c-35.6,0-64.4,28.8-64.4,64.4s28.8,64.4,64.4,64.4h280.4c40.8,0,73.6-32.8,73.6-73.6C463.2,229.6,437.6,200,403.6,193.2z"/>
<polygon class="st2" points="211.6,422.4 296.4,422.4 296.4,314.4 342.8,314.4 254,209.6 165.2,314.4 211.6,314.4 "/>
</svg>
